<?xml version="1.0" encoding="UTF-8"?>
<svg xmlns="http://www.w3.org/2000/svg" xmlns:xlink="http://www.w3.org/1999/xlink" width="50px" height="54px" viewBox="0 0 50 53" version="1.1">
<g id="surface1">
<path style="fill-rule:nonzero;fill:rgb(82.352942%,89.803922%,65.490198%);fill-opacity:1;stroke-width:5;stroke-linecap:butt;stroke-linejoin:miter;stroke:rgb(62.7451%,73.333335%,50.196081%);stroke-opacity:1;stroke-miterlimit:10;" d="M 94.396563 36.758402 C 94.396563 36.758402 94.616875 21.513119 89.109063 3.662441 C 88.697813 2.337412 100.095313 1.593013 102.87125 4.525943 C 107.115938 9.022111 101.8725 21.647111 98.611875 40.167748 L 94.910625 39.735996 Z M 94.396563 36.758402 " transform="matrix(0.265957,0,0,0.262376,0,0)"/>
<path style="fill-rule:nonzero;fill:rgb(65.098041%,52.549022%,74.117649%);fill-opacity:1;stroke-width:5;stroke-linecap:round;stroke-linejoin:miter;stroke:rgb(52.156866%,34.509805%,64.313728%);stroke-opacity:1;stroke-miterlimit:10;" d="M 76.345625 88.375 C 76.345625 71.432488 62.612813 57.705778 45.678125 57.705778 C 28.743438 57.705778 15.025313 71.432488 15.025313 88.375 C 15.025313 105.302624 28.743438 119.029334 45.678125 119.029334 C 62.612813 119.029334 76.345625 105.302624 76.345625 88.375 Z M 76.345625 88.375 " transform="matrix(0.265957,0,0,0.262376,0,0)"/>
<path style="fill-rule:nonzero;fill:rgb(65.098041%,52.549022%,74.117649%);fill-opacity:1;stroke-width:5;stroke-linecap:round;stroke-linejoin:miter;stroke:rgb(52.156866%,34.509805%,64.313728%);stroke-opacity:1;stroke-miterlimit:10;" d="M 166.90875 131.803213 C 166.90875 115.500884 153.704688 102.295254 137.41625 102.295254 C 121.113125 102.295254 107.909063 115.500884 107.909063 131.803213 C 107.909063 148.090654 121.113125 161.296285 137.41625 161.296285 C 153.704688 161.296285 166.90875 148.090654 166.90875 131.803213 Z M 166.90875 131.803213 " transform="matrix(0.265957,0,0,0.262376,0,0)"/>
<path style="fill-rule:nonzero;fill:rgb(65.098041%,52.549022%,74.117649%);fill-opacity:1;stroke-width:5;stroke-linecap:round;stroke-linejoin:miter;stroke:rgb(52.156866%,34.509805%,64.313728%);stroke-opacity:1;stroke-miterlimit:10;" d="M 172.66625 83.685289 C 172.66625 66.698113 158.904063 52.926739 141.925313 52.926739 C 124.931875 52.926739 111.169688 66.698113 111.169688 83.685289 C 111.169688 100.657577 124.931875 114.42895 141.925313 114.42895 C 158.904063 114.42895 172.66625 100.657577 172.66625 83.685289 Z M 172.66625 83.685289 " transform="matrix(0.265957,0,0,0.262376,0,0)"/>
<path style="fill-rule:nonzero;fill:rgb(65.098041%,52.549022%,74.117649%);fill-opacity:1;stroke-width:5;stroke-linecap:round;stroke-linejoin:miter;stroke:rgb(52.156866%,34.509805%,64.313728%);stroke-opacity:1;stroke-miterlimit:10;" d="M 87.684375 140.676445 C 87.684375 125.118514 75.067813 112.508402 59.51375 112.508402 C 43.945 112.508402 31.343125 125.118514 31.343125 140.676445 C 31.343125 156.234375 43.945 168.844487 59.51375 168.844487 C 75.067813 168.844487 87.684375 156.234375 87.684375 140.676445 Z M 87.684375 140.676445 " transform="matrix(0.265957,0,0,0.262376,0,0)"/>
<path style="fill-rule:nonzero;fill:rgb(65.098041%,52.549022%,74.117649%);fill-opacity:1;stroke-width:5;stroke-linecap:round;stroke-linejoin:miter;stroke:rgb(52.156866%,34.509805%,64.313728%);stroke-opacity:1;stroke-miterlimit:10;" d="M 131.644063 170.765035 C 131.644063 154.760466 118.660313 141.778154 102.650938 141.778154 C 86.641563 141.778154 73.657813 154.760466 73.657813 170.765035 C 73.657813 186.784493 86.641563 199.766804 102.650938 199.766804 C 118.660313 199.766804 131.644063 186.784493 131.644063 170.765035 Z M 131.644063 170.765035 " transform="matrix(0.265957,0,0,0.262376,0,0)"/>
<path style="fill-rule:nonzero;fill:rgb(65.098041%,52.549022%,74.117649%);fill-opacity:1;stroke-width:5;stroke-linecap:round;stroke-linejoin:miter;stroke:rgb(52.156866%,34.509805%,64.313728%);stroke-opacity:1;stroke-miterlimit:10;" d="M 121.803438 67.978479 C 121.803438 52.360996 109.142813 39.706221 93.515313 39.706221 C 77.9025 39.706221 65.241875 52.360996 65.241875 67.978479 C 65.241875 83.595961 77.9025 96.265625 93.515313 96.265625 C 109.142813 96.265625 121.803438 83.595961 121.803438 67.978479 Z M 121.803438 67.978479 " transform="matrix(0.265957,0,0,0.262376,0,0)"/>
<path style="fill-rule:nonzero;fill:rgb(65.098041%,52.549022%,74.117649%);fill-opacity:1;stroke-width:5;stroke-linecap:round;stroke-linejoin:miter;stroke:rgb(52.156866%,34.509805%,64.313728%);stroke-opacity:1;stroke-miterlimit:10;" d="M 125.8425 119.237765 C 125.8425 101.87839 111.757188 87.794369 94.396563 87.794369 C 77.035938 87.794369 62.965313 101.87839 62.965313 119.237765 C 62.965313 136.59714 77.035938 150.681162 94.396563 150.681162 C 111.757188 150.681162 125.8425 136.59714 125.8425 119.237765 Z M 125.8425 119.237765 " transform="matrix(0.265957,0,0,0.262376,0,0)"/>
<path style="fill-rule:nonzero;fill:rgb(82.352942%,89.803922%,65.490198%);fill-opacity:1;stroke-width:5;stroke-linecap:butt;stroke-linejoin:miter;stroke:rgb(62.7451%,73.333335%,50.196081%);stroke-opacity:1;stroke-miterlimit:10;" d="M 76.345625 24.014298 C 70.294375 22.346846 55.239688 19.413915 42.153125 20.828272 C 26.275938 22.555277 2.834688 36.281987 2.496875 45.512529 C 2.35 49.591834 12.734063 58.569281 30.564688 62.529481 C 42.82875 65.25398 61.481875 63.750295 72.071562 58.599057 C 94.396563 47.745725 97.510313 37.696344 97.510313 37.696344 C 97.304688 37.487913 111.889375 65.373084 150.45875 64.718013 C 174.942813 64.316038 184.724688 47.924381 185.165312 42.222288 C 185.620625 36.505307 170.375 22.31707 152.852812 19.08638 C 141.925313 17.061616 128.60375 18.654629 119.012813 21.885318 C 108.525938 25.39888 97.510313 36.743514 97.510313 36.743514 C 97.510313 36.743514 87.787188 27.185436 76.345625 24.014298 Z M 76.345625 24.014298 " transform="matrix(0.265957,0,0,0.262376,0,0)"/>
<path style="fill:none;stroke-width:5;stroke-linecap:round;stroke-linejoin:miter;stroke:rgb(62.7451%,73.333335%,50.196081%);stroke-opacity:1;stroke-miterlimit:10;" d="M 93.955938 37.085938 C 93.955938 37.085938 66.68125 26.604805 42.814063 37.711232 " transform="matrix(0.265957,0,0,0.262376,0,0)"/>
<path style="fill:none;stroke-width:5;stroke-linecap:round;stroke-linejoin:miter;stroke:rgb(62.7451%,73.333335%,50.196081%);stroke-opacity:1;stroke-miterlimit:10;" d="M 101.46125 36.609522 C 101.46125 36.609522 123.360313 29.061321 142.145625 36.073555 " transform="matrix(0.265957,0,0,0.262376,0,0)"/>
<path style="fill-rule:nonzero;fill:rgb(100%,100%,100%);fill-opacity:1;stroke-width:1;stroke-linecap:round;stroke-linejoin:miter;stroke:rgb(100%,100%,100%);stroke-opacity:1;stroke-miterlimit:10;" d="M 73.217188 115.366893 C 73.466875 113.684552 73.61375 108.369546 79.239063 104.022258 C 81.163125 102.607901 82.631875 103.605395 82.396875 106.13635 C 81.941563 111.436468 77.447187 114.890478 76.345625 117.153449 C 74.333438 121.277417 74.90625 123.689269 74.539062 123.719045 C 74.171875 123.748821 72.541562 119.967276 73.217188 115.366893 Z M 73.217188 115.366893 " transform="matrix(0.265957,0,0,0.262376,0,0)"/>
<path style="fill-rule:nonzero;fill:rgb(100%,100%,100%);fill-opacity:1;stroke-width:1;stroke-linecap:round;stroke-linejoin:miter;stroke:rgb(100%,100%,100%);stroke-opacity:1;stroke-miterlimit:10;" d="M 78.636875 130.522848 C 79.165625 131.371462 78.8425 132.577388 77.60875 132.934699 C 76.580625 133.232459 75.714063 132.205189 75.640625 131.416126 C 75.523125 130.329304 75.714063 129.316922 76.169375 129.093603 C 76.624688 128.885171 77.814375 129.18293 78.636875 130.522848 Z M 78.636875 130.522848 " transform="matrix(0.265957,0,0,0.262376,0,0)"/>
<path style="fill-rule:nonzero;fill:rgb(100%,100%,100%);fill-opacity:1;stroke-width:1;stroke-linecap:round;stroke-linejoin:miter;stroke:rgb(100%,100%,100%);stroke-opacity:1;stroke-miterlimit:10;" d="M 122.155938 174.978331 C 122.508438 173.415094 124.182813 168.665831 120.6725 162.904186 C 119.43875 161.013414 117.823125 161.400501 117.162188 163.693249 C 115.781563 168.546728 118.5575 173.117335 118.777813 175.484522 C 119.174375 179.816922 117.837813 181.737471 118.14625 181.901238 C 118.454688 182.065006 121.186563 179.266067 122.155938 174.963443 Z M 122.155938 174.978331 " transform="matrix(0.265957,0,0,0.262376,0,0)"/>
<path style="fill-rule:nonzero;fill:rgb(100%,100%,100%);fill-opacity:1;stroke-width:1;stroke-linecap:round;stroke-linejoin:miter;stroke:rgb(100%,100%,100%);stroke-opacity:1;stroke-miterlimit:10;" d="M 112.227188 186.546285 C 111.492813 187.112028 111.360625 188.27329 112.33 189.002801 C 113.137813 189.613208 114.254063 189.002801 114.591875 188.332842 C 115.047188 187.424676 115.223438 186.471846 114.900313 186.114534 C 114.577188 185.772111 113.416875 185.638119 112.227188 186.546285 Z M 112.227188 186.546285 " transform="matrix(0.265957,0,0,0.262376,0,0)"/>
</g>
</svg>
