<?xml version="1.0" encoding="UTF-8"?>
<svg xmlns="http://www.w3.org/2000/svg" xmlns:xlink="http://www.w3.org/1999/xlink" width="60px" height="64px" viewBox="0 0 60 64" version="1.1">
<g id="surface1">
<path style="fill-rule:nonzero;fill:rgb(82.352942%,89.803922%,65.490198%);fill-opacity:1;stroke-width:5;stroke-linecap:butt;stroke-linejoin:miter;stroke:rgb(62.7451%,73.333335%,50.196081%);stroke-opacity:1;stroke-miterlimit:10;" d="M 113.25773 116.355819 C 113.25773 116.355819 36.956287 111.978515 15.361539 136.410355 C -8.100008 162.933574 5.900982 170.034534 15.361539 174.152442 C 24.790454 178.27035 51.922317 185.371309 86.711219 170.601962 C 121.515942 155.865039 123.208717 143.122221 123.208717 143.122221 C 122.923951 142.846613 144.186472 177.362464 194.653319 176.503216 C 226.689484 175.968212 239.48813 160.793559 240.089302 153.303506 C 240.658834 145.829665 231.815271 124.607847 192.311911 120.473727 C 152.808551 116.355819 113.273551 116.355819 113.273551 116.355819 Z M 113.25773 116.355819 " transform="matrix(0.246913,0,0,0.240945,0,10.074075)"/>
<path style="fill:none;stroke-width:5;stroke-linecap:round;stroke-linejoin:miter;stroke:rgb(62.7451%,73.333335%,50.196081%);stroke-opacity:1;stroke-miterlimit:10;" d="M 102.927056 134.41625 C 102.927056 134.41625 55.576813 141.209177 30.232647 154.308664 " transform="matrix(0.246913,0,0,0.240945,0,10.074075)"/>
<path style="fill:none;stroke-width:5;stroke-linecap:round;stroke-linejoin:miter;stroke:rgb(62.7451%,73.333335%,50.196081%);stroke-opacity:1;stroke-miterlimit:10;" d="M 138.079825 131.433199 C 138.079825 131.433199 179.76639 147.775133 208.65431 150.985156 " transform="matrix(0.246913,0,0,0.240945,0,10.074075)"/>
<path style="fill-rule:nonzero;fill:rgb(99.215686%,88.627452%,89.803922%);fill-opacity:1;stroke-width:5;stroke-linecap:butt;stroke-linejoin:miter;stroke:rgb(96.862745%,66.274512%,69.803923%);stroke-opacity:1;stroke-miterlimit:10;" d="M 123.208717 141.111904 C 123.208717 141.111904 130.992318 149.477418 142.952486 151.714706 C 171.523999 157.080957 203.291219 144.71102 209.413686 104.683009 C 214.555292 71.05883 199.826567 43.07651 162.364029 19.520131 C 157.269884 16.310108 134.583533 2.497283 117.956368 2.497283 C 101.313382 2.497283 69.925851 19.649829 47.397704 42.20105 C 27.95452 61.623309 17.275798 89.24896 32.30511 120.862821 C 43.616645 144.500261 70.305539 155.913676 96.535643 152.800926 C 112.213589 150.968944 123.208717 141.128116 123.208717 141.128116 Z M 123.208717 141.111904 " transform="matrix(0.246913,0,0,0.240945,0,10.074075)"/>
<path style="fill-rule:nonzero;fill:rgb(99.215686%,88.627452%,89.803922%);fill-opacity:1;stroke-width:5;stroke-linecap:round;stroke-linejoin:miter;stroke:rgb(96.862745%,66.274512%,69.803923%);stroke-opacity:1;stroke-miterlimit:10;" d="M 123.208717 141.111904 C 123.208717 141.111904 110.916322 130.120008 112.846402 102.640267 " transform="matrix(0.246913,0,0,0.240945,0,10.074075)"/>
<path style="fill-rule:nonzero;fill:rgb(100%,100%,100%);fill-opacity:1;stroke-width:1;stroke-linecap:round;stroke-linejoin:miter;stroke:rgb(100%,100%,100%);stroke-opacity:1;stroke-miterlimit:10;" d="M 39.898868 78.824492 C 40.642423 75.890077 41.860589 66.519404 52.586771 59.872387 C 56.257087 57.732372 58.645957 59.726477 57.791659 64.16863 C 56.019782 73.425817 47.476805 78.727218 45.119576 82.520882 C 40.816447 89.427294 41.401799 93.804598 40.768986 93.804598 C 40.088712 93.804598 37.905507 86.817124 39.898868 78.824492 Z M 39.898868 78.824492 " transform="matrix(0.246913,0,0,0.240945,0,10.074075)"/>
<path style="fill-rule:nonzero;fill:rgb(100%,100%,100%);fill-opacity:1;stroke-width:1;stroke-linecap:round;stroke-linejoin:miter;stroke:rgb(100%,100%,100%);stroke-opacity:1;stroke-miterlimit:10;" d="M 46.76489 106.547416 C 47.508446 108.120003 46.717429 110.195169 44.502583 110.600475 C 42.619964 110.940932 41.275237 108.963039 41.275237 107.568787 C 41.275237 105.639531 41.797307 103.904821 42.651605 103.596789 C 43.474262 103.272544 45.530905 104.034519 46.76489 106.547416 Z M 46.76489 106.547416 " transform="matrix(0.246913,0,0,0.240945,0,10.074075)"/>
</g>
</svg>
