<?xml version="1.0" encoding="UTF-8"?>
<svg xmlns="http://www.w3.org/2000/svg" xmlns:xlink="http://www.w3.org/1999/xlink" width="50px" height="54px" viewBox="0 0 50 55" version="1.1">
<g id="surface1">
<path style="fill-rule:nonzero;fill:rgb(82.352942%,89.803922%,65.490198%);fill-opacity:1;stroke-width:5;stroke-linecap:round;stroke-linejoin:miter;stroke:rgb(62.7451%,73.333335%,50.196081%);stroke-opacity:1;stroke-miterlimit:10;" d="M 92.486484 29.883949 C 92.486484 29.883949 82.793203 11.104261 86.295937 4.720028 C 87.554062 2.453267 95.917734 1.133381 100.135312 4.720028 C 107.28375 10.802983 92.486484 29.883949 92.486484 29.883949 Z M 92.486484 29.883949 " transform="matrix(0.273224,0,0,0.272277,0,0)"/>
<path style="fill-rule:nonzero;fill:rgb(91.37255%,38.82353%,45.490196%);fill-opacity:1;stroke-width:5;stroke-linecap:round;stroke-linejoin:miter;stroke:rgb(90.196079%,22.352941%,30.19608%);stroke-opacity:1;stroke-miterlimit:10;" d="M 11.494687 98.073295 C 11.551875 74.544886 24.93375 42.222017 63.277969 33.527983 C 84.952031 28.621449 112.016016 29.726136 135.977578 38.54929 C 172.963594 52.164205 178.625156 84.271875 174.521953 113.825852 C 169.96125 146.593466 148.115625 168.816335 142.396875 174.798864 C 128.78625 189.045028 105.625312 198.88679 90.785156 199.403267 C 75.959297 199.905398 48.123281 179.734091 38.086875 167.109091 C 22.231641 147.16733 11.423203 131.744744 11.494687 98.087642 Z M 11.494687 98.073295 " transform="matrix(0.273224,0,0,0.272277,0,0)"/>
<path style="fill-rule:nonzero;fill:rgb(97.647059%,84.705883%,29.803923%);fill-opacity:1;stroke-width:1;stroke-linecap:round;stroke-linejoin:miter;stroke:rgb(97.647059%,84.705883%,30.19608%);stroke-opacity:1;stroke-miterlimit:10;" d="M 37.821045 90.271428 C 37.819857 89.081032 36.316051 88.117385 34.477896 88.113846 C 32.625961 88.114298 31.125275 89.069817 31.116659 90.277936 C 31.117847 91.468333 32.621654 92.431979 34.473589 92.431528 C 36.325524 92.431076 37.822233 91.461825 37.821045 90.271428 Z M 37.821045 90.271428 " transform="matrix(0.0759981,-0.261532,0.262442,0.0757347,-16.893443,26.753961)"/>
<path style="fill-rule:nonzero;fill:rgb(97.647059%,84.705883%,29.803923%);fill-opacity:1;stroke-width:1;stroke-linecap:round;stroke-linejoin:miter;stroke:rgb(97.647059%,84.705883%,30.19608%);stroke-opacity:1;stroke-miterlimit:10;" d="M 63.758342 106.522463 C 63.763709 105.320168 62.257186 104.355077 60.405116 104.363741 C 58.56676 104.357501 57.057754 105.324405 57.06672 106.52608 C 57.060734 107.714093 58.552924 108.679804 60.405613 108.685424 C 62.257683 108.676759 63.766689 107.709855 63.758342 106.522463 Z M 63.758342 106.522463 " transform="matrix(0.0118226,-0.272022,0.272968,0.0117816,-13.284153,44.182427)"/>
<path style="fill-rule:nonzero;fill:rgb(97.647059%,84.705883%,29.803923%);fill-opacity:1;stroke-width:1;stroke-linecap:round;stroke-linejoin:miter;stroke:rgb(97.647059%,84.705883%,30.19608%);stroke-opacity:1;stroke-miterlimit:10;" d="M 45.236979 132.546867 C 45.233096 130.70297 44.268817 129.191779 43.075815 129.203982 C 41.88612 129.202225 40.914824 130.697109 40.915399 132.554966 C 40.919283 134.398863 41.88687 135.896094 43.076564 135.897851 C 44.266258 135.899608 45.237554 134.404724 45.236979 132.546867 Z M 45.236979 132.546867 " transform="matrix(0.265863,-0.062776,0.0629943,0.264942,-8.032787,3.675743)"/>
<path style="fill-rule:nonzero;fill:rgb(97.647059%,84.705883%,29.803923%);fill-opacity:1;stroke-width:1;stroke-linecap:round;stroke-linejoin:miter;stroke:rgb(97.647059%,84.705883%,30.19608%);stroke-opacity:1;stroke-miterlimit:10;" d="M 89.734095 93.709599 C 89.725747 92.522207 88.233557 91.556496 86.380868 91.550877 C 84.52818 91.545257 83.033506 92.511541 83.028139 93.713837 C 83.036486 94.901228 84.528677 95.86694 86.381365 95.872559 C 88.233435 95.863895 89.728109 94.897611 89.734095 93.709599 Z M 89.734095 93.709599 " transform="matrix(0.0118226,-0.272022,0.272968,0.0117816,-3,47.907177)"/>
<path style="fill-rule:nonzero;fill:rgb(82.352942%,89.803922%,65.490198%);fill-opacity:1;stroke-width:5;stroke-linecap:butt;stroke-linejoin:miter;stroke:rgb(62.7451%,73.333335%,50.196081%);stroke-opacity:1;stroke-miterlimit:10;" d="M 61.219219 19.826989 C 50.367891 19.65483 36.228281 23.184091 27.9075 28.305824 C 13.925156 36.913778 -2.845078 61.489489 4.146094 67.931108 C 6.276328 69.896591 30.738281 72.364205 46.407656 67.615483 C 58.774453 63.856676 63.420937 52.537216 72.671016 44.73267 L 93.573047 30.629972 C 93.573047 30.629972 114.846797 71.159091 142.983047 68.949716 C 168.088359 66.984233 179.926172 75.03267 180.383672 69.164915 C 180.855469 63.297159 175.665703 37.846307 159.281484 28.205398 C 149.430937 22.423722 131.76 19.626136 122.581406 19.65483 C 111.186797 19.683523 94.602422 25.766477 94.602422 25.766477 C 94.602422 25.766477 73.42875 20.013494 61.204922 19.826989 Z M 61.219219 19.826989 " transform="matrix(0.273224,0,0,0.272277,0,0)"/>
<path style="fill-rule:nonzero;fill:rgb(82.352942%,89.803922%,65.490198%);fill-opacity:1;stroke-width:5;stroke-linecap:butt;stroke-linejoin:miter;stroke:rgb(62.7451%,73.333335%,50.196081%);stroke-opacity:1;stroke-miterlimit:10;" d="M 93.830391 29.883949 C 93.830391 29.883949 60.146953 38.491903 67.338281 62.852415 C 74.543906 87.212926 96.375234 70.542187 99.04875 67.342898 C 101.736562 64.143608 106.954922 54.746591 93.830391 29.883949 Z M 93.830391 29.883949 " transform="matrix(0.273224,0,0,0.272277,0,0)"/>
<path style="fill-rule:nonzero;fill:rgb(82.352942%,89.803922%,65.490198%);fill-opacity:1;stroke-width:5;stroke-linecap:round;stroke-linejoin:miter;stroke:rgb(62.7451%,73.333335%,50.196081%);stroke-opacity:1;stroke-miterlimit:10;" d="M 92.486484 29.883949 C 92.486484 29.883949 82.793203 42.752841 82.793203 55.63608 " transform="matrix(0.273224,0,0,0.272277,0,0)"/>
<path style="fill-rule:nonzero;fill:rgb(82.352942%,89.803922%,65.490198%);fill-opacity:1;stroke-width:5;stroke-linecap:round;stroke-linejoin:miter;stroke:rgb(62.7451%,73.333335%,50.196081%);stroke-opacity:1;stroke-miterlimit:10;" d="M 92.486484 29.883949 C 92.486484 29.883949 55.185937 23.485369 36.742969 41.920739 " transform="matrix(0.273224,0,0,0.272277,0,0)"/>
<path style="fill-rule:nonzero;fill:rgb(82.352942%,89.803922%,65.490198%);fill-opacity:1;stroke-width:5;stroke-linecap:round;stroke-linejoin:miter;stroke:rgb(62.7451%,73.333335%,50.196081%);stroke-opacity:1;stroke-miterlimit:10;" d="M 92.486484 29.883949 C 92.486484 29.883949 126.298594 25.393466 143.955234 40.299574 " transform="matrix(0.273224,0,0,0.272277,0,0)"/>
<path style="fill-rule:nonzero;fill:rgb(100%,100%,100%);fill-opacity:1;stroke-width:1;stroke-linecap:round;stroke-linejoin:miter;stroke:rgb(100%,100%,100%);stroke-opacity:1;stroke-miterlimit:10;" d="M 136.578047 163.106392 C 138.350859 161.51392 145.756641 156.435227 147.08625 148.573295 C 147.114844 145.087074 143.826562 145.316619 141.081562 147.554688 C 135.305625 152.21733 134.476406 156.923011 133.275469 159.390625 C 131.373984 163.235511 125.755312 169.964062 125.955469 170.365767 C 126.155625 170.767472 131.745703 167.424716 136.592344 163.106392 Z M 136.578047 163.106392 " transform="matrix(0.273224,0,0,0.272277,0,0)"/>
<path style="fill-rule:nonzero;fill:rgb(100%,100%,100%);fill-opacity:1;stroke-width:1;stroke-linecap:round;stroke-linejoin:miter;stroke:rgb(100%,100%,100%);stroke-opacity:1;stroke-miterlimit:10;" d="M 115.761797 174.296733 C 114.575156 174.81321 114.003281 176.376989 115.089844 177.696875 C 115.990547 178.787216 117.706172 178.299432 118.378125 177.510369 C 119.307422 176.405682 119.850703 175.157528 119.521875 174.583665 C 119.193047 174.024148 117.648984 173.464631 115.761797 174.296733 Z M 115.761797 174.296733 " transform="matrix(0.273224,0,0,0.272277,0,0)"/>
</g>
</svg>
